<svg width="171" height="24" viewBox="0 0 171 24" fill="none" xmlns="http://www.w3.org/2000/svg">
<path d="M0.986 23.536L2.39 16.854H3.508C4.132 16.8367 4.704 16.4727 5.224 15.762C5.744 15.034 6.24667 13.916 6.732 12.408C7.21733 10.9 7.71133 8.95 8.214 6.558L9.254 1.54H21.786L18.536 16.854H20.954L19.55 23.536H16.43L17.158 20H4.86L4.132 23.536H0.986ZM7.798 16.854H14.948L17.548 4.686H11.958L11.386 7.442C11.022 9.22733 10.658 10.744 10.294 11.992C9.94733 13.24 9.566 14.2627 9.15 15.06C8.75133 15.84 8.30067 16.438 7.798 16.854ZM29.7091 20.26C28.4264 20.26 27.3344 19.974 26.4331 19.402C25.5318 18.83 24.8558 18.05 24.4051 17.062C23.9544 16.074 23.7551 14.9733 23.8071 13.76C23.8591 12.7027 24.0931 11.7147 24.5091 10.796C24.9251 9.87733 25.4971 9.07133 26.2251 8.378C26.9531 7.66733 27.8024 7.12133 28.7731 6.74C29.7438 6.34133 30.7924 6.142 31.9191 6.142C32.8724 6.142 33.7218 6.28933 34.4671 6.584C35.2298 6.86133 35.8364 7.286 36.2871 7.858C36.7378 8.43 36.9718 9.12333 36.9891 9.938C37.0411 11.3767 36.4431 12.4773 35.1951 13.24C33.9471 14.0027 32.0058 14.384 29.3711 14.384C28.7644 14.384 28.1231 14.3753 27.4471 14.358C26.7884 14.3233 26.0951 14.2713 25.3671 14.202L25.7831 11.94C26.3898 11.992 26.9704 12.0353 27.5251 12.07C28.0798 12.0873 28.6518 12.096 29.2411 12.096C30.3331 12.096 31.1911 12.0267 31.8151 11.888C32.4564 11.732 32.9071 11.5153 33.1671 11.238C33.4271 10.9607 33.5398 10.6227 33.5051 10.224C33.4878 9.912 33.3838 9.64333 33.1931 9.418C33.0198 9.19267 32.7771 9.028 32.4651 8.924C32.1531 8.80267 31.8064 8.742 31.4251 8.742C30.8878 8.742 30.3764 8.872 29.8911 9.132C29.4231 9.392 28.9984 9.756 28.6171 10.224C28.2531 10.692 27.9584 11.238 27.7331 11.862C27.5078 12.486 27.3778 13.162 27.3431 13.89C27.2911 14.6527 27.3604 15.32 27.5511 15.892C27.7418 16.4467 28.0624 16.88 28.5131 17.192C28.9638 17.4867 29.5271 17.634 30.2031 17.634C30.6884 17.634 31.1131 17.5733 31.4771 17.452C31.8411 17.3133 32.1531 17.1487 32.4131 16.958C32.6731 16.7673 32.8811 16.5853 33.0371 16.412C33.1931 16.2387 33.2971 16.1 33.3491 15.996L36.2351 16.906C36.0791 17.166 35.8278 17.4867 35.4811 17.868C35.1518 18.232 34.7184 18.596 34.1811 18.96C33.6611 19.324 33.0284 19.636 32.2831 19.896C31.5378 20.1387 30.6798 20.26 29.7091 20.26ZM40.6082 6.376H43.7542L43.2082 8.898C43.8668 8.03133 44.6642 7.35533 45.6002 6.87C46.5535 6.38467 47.5242 6.142 48.5122 6.142C49.2402 6.142 49.8295 6.26333 50.2802 6.506C50.7308 6.73133 51.0602 7.06067 51.2682 7.494C51.4935 7.92733 51.6148 8.43867 51.6322 9.028C52.1175 8.38667 52.6462 7.858 53.2182 7.442C53.7902 7.026 54.3882 6.70533 55.0122 6.48C55.6535 6.25467 56.3035 6.142 56.9622 6.142C57.7595 6.142 58.3748 6.28067 58.8082 6.558C59.2415 6.83533 59.5448 7.21667 59.7182 7.702C59.9088 8.17 60.0042 8.70733 60.0042 9.314C60.0042 9.574 59.9868 9.886 59.9522 10.25C59.9175 10.614 59.8482 11.03 59.7442 11.498L57.9242 20H54.4402L56.0522 12.356C56.1735 11.8187 56.2342 11.3593 56.2342 10.978C56.2342 10.3887 56.1042 9.94667 55.8442 9.652C55.6015 9.35733 55.2635 9.21 54.8302 9.21C54.4142 9.21 53.9808 9.33133 53.5302 9.574C53.0795 9.81667 52.6548 10.1547 52.2562 10.588C51.8575 11.0213 51.5195 11.5153 51.2422 12.07L49.5782 20H46.0942L47.7062 12.356C47.7755 12.096 47.8188 11.8533 47.8362 11.628C47.8535 11.3853 47.8622 11.16 47.8622 10.952C47.8622 10.3627 47.7408 9.92933 47.4982 9.652C47.2555 9.35733 46.9088 9.21 46.4582 9.21C45.8342 9.21 45.1842 9.47867 44.5082 10.016C43.8495 10.536 43.3122 11.212 42.8962 12.044L41.2062 20H37.7222L40.6082 6.376ZM64.7778 20.26C62.6458 20.26 61.5798 19.1507 61.5798 16.932C61.5798 16.62 61.5971 16.2993 61.6318 15.97C61.6838 15.6407 61.7531 15.2853 61.8398 14.904L63.6598 6.376H67.1178L65.4798 14.15C65.3585 14.6527 65.2978 15.086 65.2978 15.45C65.2978 16.6807 65.8178 17.296 66.8578 17.296C67.2738 17.296 67.6898 17.2093 68.1058 17.036C68.5391 16.8453 68.9725 16.568 69.4058 16.204C69.8391 15.84 70.2378 15.3807 70.6018 14.826L72.3958 6.376H75.8798L73.8258 15.996C73.8085 16.0827 73.7911 16.1693 73.7738 16.256C73.7738 16.3253 73.7738 16.3947 73.7738 16.464C73.7738 16.828 73.9818 17.0187 74.3978 17.036L73.7738 20C73.4618 20.052 73.1845 20.0953 72.9418 20.13C72.7165 20.1647 72.5085 20.182 72.3178 20.182C71.7285 20.182 71.2605 20.0607 70.9138 19.818C70.5671 19.5753 70.3938 19.2027 70.3938 18.7C70.3938 18.6133 70.3938 18.518 70.3938 18.414C70.4111 18.31 70.4285 18.18 70.4458 18.024C70.4805 17.8507 70.5238 17.66 70.5758 17.452C69.7958 18.3707 68.9031 19.0727 67.8978 19.558C66.9098 20.026 65.8698 20.26 64.7778 20.26ZM89.5832 20.26C88.0752 20.26 86.8359 19.9393 85.8652 19.298C84.9119 18.6393 84.2359 17.7813 83.8372 16.724C83.4559 15.6493 83.3519 14.5053 83.5252 13.292C83.6466 12.3907 83.9066 11.5413 84.3052 10.744C84.7039 9.94667 85.2152 9.25333 85.8392 8.664C86.4632 8.05733 87.1826 7.58067 87.9972 7.234C88.8292 6.88733 89.7306 6.714 90.7012 6.714C91.4639 6.714 92.1486 6.83533 92.7552 7.078C93.3619 7.30333 93.8732 7.61533 94.2892 8.014C94.7226 8.41267 95.0432 8.88067 95.2512 9.418C95.3552 8.08333 95.2512 7.00867 94.9392 6.194C94.6272 5.362 94.0899 4.75533 93.3272 4.374C92.6859 4.02733 91.8799 3.81933 90.9092 3.75C89.9559 3.68067 88.8552 3.71533 87.6072 3.854V1.15C89.0806 0.976666 90.4499 0.968 91.7152 1.124C92.9979 1.28 94.1159 1.63533 95.0692 2.19C96.0399 2.762 96.8026 3.53333 97.3572 4.504C97.9119 5.47467 98.1892 6.688 98.1892 8.144C98.1892 9.46133 98.0679 10.7353 97.8252 11.966C97.5826 13.1793 97.1926 14.3493 96.6552 15.476C96.2392 16.3947 95.6932 17.218 95.0172 17.946C94.3586 18.6567 93.5786 19.22 92.6772 19.636C91.7759 20.052 90.7446 20.26 89.5832 20.26ZM89.8952 17.504C90.3806 17.504 90.8486 17.4087 91.2992 17.218C91.7499 17.01 92.1572 16.7327 92.5212 16.386C92.8852 16.022 93.1886 15.5973 93.4312 15.112C93.6739 14.6093 93.8299 14.0633 93.8992 13.474C94.0206 12.694 93.9686 12.0007 93.7432 11.394C93.5352 10.77 93.1886 10.2847 92.7032 9.938C92.2352 9.59133 91.6719 9.418 91.0132 9.418C90.3546 9.418 89.7392 9.59133 89.1672 9.938C88.5952 10.2673 88.1186 10.7353 87.7372 11.342C87.3559 11.9487 87.1046 12.668 86.9832 13.5C86.8792 14.2627 86.9399 14.956 87.1652 15.58C87.3906 16.1867 87.7372 16.6633 88.2052 17.01C88.6906 17.3393 89.2539 17.504 89.8952 17.504ZM105.576 20.26C104.294 20.26 103.202 19.974 102.3 19.402C101.399 18.83 100.723 18.05 100.272 17.062C99.8216 16.074 99.6223 14.9733 99.6743 13.76C99.7263 12.7027 99.9603 11.7147 100.376 10.796C100.792 9.87733 101.364 9.07133 102.092 8.378C102.82 7.66733 103.67 7.12133 104.64 6.74C105.611 6.34133 106.66 6.142 107.786 6.142C108.74 6.142 109.589 6.28933 110.334 6.584C111.097 6.86133 111.704 7.286 112.154 7.858C112.605 8.43 112.839 9.12333 112.856 9.938C112.908 11.3767 112.31 12.4773 111.062 13.24C109.814 14.0027 107.873 14.384 105.238 14.384C104.632 14.384 103.99 14.3753 103.314 14.358C102.656 14.3233 101.962 14.2713 101.234 14.202L101.65 11.94C102.257 11.992 102.838 12.0353 103.392 12.07C103.947 12.0873 104.519 12.096 105.108 12.096C106.2 12.096 107.058 12.0267 107.682 11.888C108.324 11.732 108.774 11.5153 109.034 11.238C109.294 10.9607 109.407 10.6227 109.372 10.224C109.355 9.912 109.251 9.64333 109.06 9.418C108.887 9.19267 108.644 9.028 108.332 8.924C108.02 8.80267 107.674 8.742 107.292 8.742C106.755 8.742 106.244 8.872 105.758 9.132C105.29 9.392 104.866 9.756 104.484 10.224C104.12 10.692 103.826 11.238 103.6 11.862C103.375 12.486 103.245 13.162 103.21 13.89C103.158 14.6527 103.228 15.32 103.418 15.892C103.609 16.4467 103.93 16.88 104.38 17.192C104.831 17.4867 105.394 17.634 106.07 17.634C106.556 17.634 106.98 17.5733 107.344 17.452C107.708 17.3133 108.02 17.1487 108.28 16.958C108.54 16.7673 108.748 16.5853 108.904 16.412C109.06 16.2387 109.164 16.1 109.216 15.996L112.102 16.906C111.946 17.166 111.695 17.4867 111.348 17.868C111.019 18.232 110.586 18.596 110.048 18.96C109.528 19.324 108.896 19.636 108.15 19.896C107.405 20.1387 106.547 20.26 105.576 20.26ZM116.475 6.376H119.621L119.075 8.898C119.734 8.03133 120.531 7.35533 121.467 6.87C122.421 6.38467 123.391 6.142 124.379 6.142C125.107 6.142 125.697 6.26333 126.147 6.506C126.598 6.73133 126.927 7.06067 127.135 7.494C127.361 7.92733 127.482 8.43867 127.499 9.028C127.985 8.38667 128.513 7.858 129.085 7.442C129.657 7.026 130.255 6.70533 130.879 6.48C131.521 6.25467 132.171 6.142 132.829 6.142C133.627 6.142 134.242 6.28067 134.675 6.558C135.109 6.83533 135.412 7.21667 135.585 7.702C135.776 8.17 135.871 8.70733 135.871 9.314C135.871 9.574 135.854 9.886 135.819 10.25C135.785 10.614 135.715 11.03 135.611 11.498L133.791 20H130.307L131.919 12.356C132.041 11.8187 132.101 11.3593 132.101 10.978C132.101 10.3887 131.971 9.94667 131.711 9.652C131.469 9.35733 131.131 9.21 130.697 9.21C130.281 9.21 129.848 9.33133 129.397 9.574C128.947 9.81667 128.522 10.1547 128.123 10.588C127.725 11.0213 127.387 11.5153 127.109 12.07L125.445 20H121.961L123.573 12.356C123.643 12.096 123.686 11.8533 123.703 11.628C123.721 11.3853 123.729 11.16 123.729 10.952C123.729 10.3627 123.608 9.92933 123.365 9.652C123.123 9.35733 122.776 9.21 122.325 9.21C121.701 9.21 121.051 9.47867 120.375 10.016C119.717 10.536 119.179 11.212 118.763 12.044L117.073 20H113.589L116.475 6.376ZM136.745 20L141.243 14.462C140.515 14.1327 139.952 13.6473 139.553 13.006C139.154 12.3647 138.998 11.5673 139.085 10.614C139.172 9.66067 139.501 8.86333 140.073 8.222C140.645 7.56333 141.399 7.06933 142.335 6.74C143.271 6.39333 144.346 6.22 145.559 6.22C146.46 6.22 147.266 6.28067 147.977 6.402C148.705 6.52333 149.338 6.67933 149.875 6.87C150.43 7.04333 150.889 7.21667 151.253 7.39L148.575 20H145.195L146.183 15.294H144.337L140.697 20H136.745ZM144.337 12.798H146.729L147.483 9.21C147.483 9.21 147.388 9.184 147.197 9.132C147.006 9.06267 146.738 9.002 146.391 8.95C146.062 8.898 145.68 8.872 145.247 8.872C144.398 8.872 143.696 9.054 143.141 9.418C142.604 9.782 142.309 10.2933 142.257 10.952C142.222 11.472 142.37 11.914 142.699 12.278C143.028 12.6247 143.574 12.798 144.337 12.798ZM151.985 20L154.871 6.376H158.563L160.981 14.072L166.701 6.376H170.549L167.663 20H164.361L166.233 11.134L161.475 17.582H159.291L157.211 11.108L155.313 20H151.985Z" fill="#251db3"/>
</svg>
